<svg width="20" height="20" viewBox="0 0 20 20" fill="none" xmlns="http://www.w3.org/2000/svg">
<path d="M9.99953 0.0200195C4.48953 0.0200195 0.0195312 4.49002 0.0195312 10C0.0195312 15.51 4.48953 19.98 9.99953 19.98C15.5095 19.98 19.9795 15.51 19.9795 10C19.9795 4.49002 15.5095 0.0200195 9.99953 0.0200195ZM9.47953 15.88V11.74H6.81953C6.44953 11.74 6.19953 11.34 6.37953 11.01L10.0595 3.84002C10.2895 3.37002 10.9995 3.54002 10.9995 4.07002V8.26002H13.5395C13.9095 8.26002 14.1495 8.65002 13.9895 8.98002L10.4295 16.1C10.1895 16.58 9.47953 16.41 9.47953 15.88Z" fill="#F2A737"/>
</svg>
