<svg width="60" height="60" viewBox="0 0 60 60" fill="none" xmlns="http://www.w3.org/2000/svg">
<path d="M17.4458 27.7957C17.4311 28.3708 17.5021 28.9449 17.6566 29.499C17.8267 29.9726 18.0314 30.433 18.2691 30.8765C18.3543 31.0077 18.4008 31.1602 18.4033 31.3165C18.3916 31.4339 18.3527 31.547 18.2896 31.6467C18.2266 31.7463 18.1411 31.8299 18.04 31.8907L16.8341 32.694C16.6881 32.7994 16.5141 32.8594 16.3341 32.8665C16.1162 32.8517 15.9116 32.7563 15.76 32.599C15.502 32.3221 15.2712 32.021 15.0708 31.6999C14.8791 31.3749 14.6883 31.0107 14.4775 30.5707C13.8029 31.4104 12.9454 32.0848 11.9703 32.5425C10.9953 33.0002 9.9286 33.229 8.85165 33.2115C8.15407 33.2485 7.45613 33.1457 6.79884 32.9092C6.14156 32.6726 5.53817 32.3071 5.02414 31.834C4.05912 30.78 3.55141 29.3863 3.61233 27.9585C3.67326 26.5308 4.29784 25.1854 5.34914 24.2174C6.67816 23.1658 8.34513 22.6351 10.0375 22.7249C10.7163 22.7305 11.3939 22.7817 12.0658 22.8782C12.7741 22.974 13.5008 23.1282 14.2666 23.299V21.9024C14.377 20.8037 14.0544 19.7052 13.3675 18.8407C12.4774 18.1617 11.3621 17.847 10.2483 17.9607C9.55191 17.9611 8.85806 18.045 8.18165 18.2107C7.4782 18.3784 6.78756 18.5959 6.11498 18.8615C5.89837 18.9592 5.67569 19.0427 5.44831 19.1115C5.34911 19.1443 5.24597 19.1636 5.14165 19.169C4.87415 19.169 4.73998 18.9774 4.73998 18.5757V17.629C4.7201 17.3986 4.76666 17.1672 4.87414 16.9624C5.01849 16.788 5.20213 16.6504 5.40998 16.5607C6.17742 16.1811 6.98649 15.8922 7.82081 15.6999C8.79612 15.4498 9.79982 15.3276 10.8066 15.3365C13.0841 15.3365 14.7483 15.8532 15.82 16.8865C16.8725 17.9199 17.4083 19.489 17.4083 21.594V27.794L17.4458 27.7957ZM9.67664 30.7049C10.3479 30.6976 11.0135 30.5813 11.6475 30.3607C12.35 30.1178 12.9768 29.6956 13.4658 29.1357C13.7743 28.783 13.9971 28.3638 14.1166 27.9107C14.2484 27.3651 14.3127 26.8053 14.3083 26.244V25.4399C13.7279 25.2987 13.14 25.1902 12.5475 25.1149C11.9507 25.0391 11.3498 25.0006 10.7483 24.9999C9.73829 24.9202 8.73162 25.1907 7.89748 25.7657C7.41988 26.1143 7.06815 26.6083 6.89502 27.1736C6.7219 27.739 6.73671 28.3453 6.93723 28.9015C7.13776 29.4577 7.51319 29.934 8.00724 30.2588C8.50129 30.5836 9.08732 30.7396 9.67748 30.7032L9.67664 30.7049ZM25.0433 32.7715C24.7856 32.798 24.5271 32.7299 24.3158 32.5799C24.115 32.3719 23.976 32.1123 23.9141 31.8299L19.4141 17.0374C19.3268 16.7897 19.269 16.5327 19.2416 16.2715C19.2317 16.2081 19.2366 16.1433 19.2559 16.0821C19.2751 16.0209 19.3083 15.9649 19.3527 15.9186C19.3972 15.8723 19.4517 15.8369 19.5121 15.8152C19.5725 15.7934 19.6371 15.7859 19.7008 15.7932H21.5791C21.8444 15.7603 22.1122 15.8288 22.3291 15.9849C22.5227 16.1953 22.655 16.4547 22.7116 16.7349L25.9266 29.4015L28.9116 16.7349C28.9501 16.4527 29.0774 16.19 29.275 15.9849C29.5046 15.8442 29.7719 15.7773 30.0408 15.7932H31.5716C31.8415 15.7649 32.1128 15.8328 32.3375 15.9849C32.5383 16.1878 32.6661 16.4516 32.7008 16.7349L35.7241 29.5565L39.035 16.7349C39.0951 16.4559 39.2269 16.1974 39.4175 15.9849C39.6409 15.8432 39.9035 15.7761 40.1675 15.7932H41.9475C42.0124 15.7844 42.0784 15.7907 42.1405 15.8116C42.2025 15.8325 42.2589 15.8675 42.3052 15.9138C42.3515 15.9601 42.3865 16.0165 42.4074 16.0786C42.4283 16.1406 42.4346 16.2067 42.4258 16.2715C42.4213 16.3744 42.4085 16.4766 42.3875 16.5774C42.3574 16.7406 42.3125 16.9007 42.2533 17.0557L37.6416 31.8482C37.5847 32.1324 37.445 32.3934 37.24 32.5982C37.0236 32.7369 36.7691 32.8039 36.5125 32.7899H34.8625C34.5926 32.8182 34.3214 32.7503 34.0966 32.5982C33.8968 32.3883 33.7695 32.1199 33.7333 31.8324L30.7675 19.489L27.82 31.8132C27.7754 32.0982 27.6492 32.3642 27.4566 32.579C27.2307 32.7285 26.9605 32.7962 26.6908 32.7707L25.0433 32.7715ZM49.6341 33.2882C48.6415 33.2894 47.6523 33.1739 46.6866 32.944C45.922 32.7886 45.1818 32.531 44.4858 32.1782C44.2395 32.0621 44.033 31.8757 43.8925 31.6424C43.8179 31.4735 43.7788 31.2911 43.7775 31.1065V30.129C43.7775 29.7274 43.9308 29.5357 44.2175 29.5357C44.3345 29.5362 44.4508 29.5556 44.5616 29.5932C44.6766 29.6315 44.8483 29.7082 45.04 29.7849C45.716 30.0811 46.4217 30.3046 47.145 30.4515C47.8946 30.6038 48.6575 30.6809 49.4225 30.6815C50.3948 30.7386 51.3634 30.5196 52.2166 30.0499C52.5283 29.8617 52.7846 29.5943 52.9594 29.2749C53.1342 28.9555 53.2212 28.5955 53.2116 28.2315C53.2184 27.9853 53.1762 27.7401 53.0875 27.5102C52.9988 27.2803 52.8654 27.0703 52.695 26.8924C52.1353 26.4174 51.4742 26.077 50.7625 25.8974L47.9875 25.0365C46.7853 24.7283 45.7128 24.0446 44.9258 23.0849C44.3097 22.2906 43.9734 21.315 43.9691 20.3099C43.9536 19.5689 44.1317 18.8368 44.4858 18.1857C44.8273 17.5701 45.2971 17.0349 45.8633 16.6165C46.4597 16.1652 47.1344 15.8279 47.8533 15.6215C48.637 15.3959 49.4495 15.2864 50.265 15.2965C50.6937 15.2935 51.1222 15.3191 51.5475 15.3732C51.9875 15.4307 52.3891 15.5074 52.7916 15.584C53.1741 15.6799 53.5416 15.7757 53.8825 15.8899C54.1618 15.9762 54.4314 16.0915 54.6866 16.234C54.912 16.3476 55.1084 16.5112 55.2608 16.7124C55.3854 16.8986 55.4459 17.1203 55.4333 17.344V18.2432C55.4333 18.6449 55.28 18.8557 54.9933 18.8557C54.7383 18.8267 54.4912 18.7486 54.2658 18.6257C53.1096 18.1133 51.8562 17.8574 50.5916 17.8757C49.7107 17.8238 48.8319 18.0088 48.0466 18.4115C47.7546 18.5853 47.5162 18.8363 47.3575 19.1368C47.1989 19.4373 47.1262 19.7757 47.1475 20.1149C47.1423 20.3689 47.1907 20.6212 47.2897 20.8553C47.3886 21.0894 47.5358 21.2999 47.7216 21.4732C48.3427 21.9663 49.0596 22.3247 49.8266 22.5257L52.5441 23.3865C53.6969 23.6803 54.7319 24.3201 55.51 25.2199C56.0938 25.9898 56.4036 26.9329 56.39 27.899C56.3992 28.668 56.228 29.4283 55.89 30.119C55.5505 30.7741 55.0742 31.3484 54.4933 31.8032C53.8615 32.2949 53.1401 32.6589 52.3691 32.8749C51.4834 33.1499 50.5608 33.2879 49.6333 33.2841L49.6341 33.2882Z" fill="white"/>
<path d="M53.2504 42.5868C46.9546 47.2368 37.8071 49.706 29.9413 49.706C19.4352 49.7598 9.28748 45.8897 1.48543 38.8535C0.892094 38.3177 1.42793 37.5902 2.13626 38.0118C9.69456 42.3712 18.1596 44.9213 26.8681 45.4624C35.5767 46.0036 44.2922 44.5211 52.3321 41.131C53.3846 40.6527 54.2838 41.8202 53.2504 42.5868ZM55.8721 39.6018C55.0679 38.5685 50.5521 39.1018 48.5046 39.3518C47.8921 39.4285 47.7963 38.8927 48.3513 38.491C51.9488 35.9652 57.8621 36.6918 58.5513 37.5343C59.2404 38.3952 58.3596 44.3085 54.9921 47.141C54.4754 47.581 53.9779 47.3518 54.2071 46.7777C54.9729 44.8818 56.6763 40.6143 55.8721 39.6002V39.6018Z" fill="white"/>
</svg>
