<svg width="32" height="44" viewBox="0 0 32 44" fill="none" xmlns="http://www.w3.org/2000/svg">
<path d="M15.9999 10V16L23.9999 8L15.9999 0V6C13.1382 5.995 10.3276 6.75897 7.86223 8.21202C5.39681 9.66508 3.36708 11.7538 1.98528 14.2599C0.603478 16.7659 -0.0796301 19.5972 0.00738705 22.4576C0.0944042 25.3181 0.94835 28.1026 2.47993 30.52L5.39993 27.6C4.4745 25.8789 3.99329 23.9541 3.99993 22C4.0024 18.8182 5.26747 15.7674 7.51738 13.5174C9.76728 11.2675 12.8181 10.0025 15.9999 10ZM29.5199 13.48L26.5999 16.4C27.5704 18.227 28.0513 20.2742 27.9956 22.3422C27.94 24.4103 27.3498 26.4286 26.2824 28.2008C25.2151 29.973 23.707 31.4386 21.9051 32.4549C20.1031 33.4711 18.0687 34.0035 15.9999 34V28L7.99993 36L15.9999 44V38C18.8617 38.005 21.6722 37.241 24.1376 35.788C26.603 34.3349 28.6328 32.2462 30.0146 29.7401C31.3964 27.2341 32.0795 24.4028 31.9925 21.5424C31.9054 18.6819 31.0515 15.8974 29.5199 13.48Z" fill="#7D4AEA"/>
</svg>
