<svg width="32" height="32" viewBox="0 0 32 32" fill="none" xmlns="http://www.w3.org/2000/svg">
<path d="M15.2776 0.0151126H16.7222C19.6113 -0.103864 22.4861 0.481085 25.0991 1.71951C27.2404 2.78628 29.0127 4.4704 30.1871 6.55464C31.4845 9.0003 32.1053 11.7483 31.9854 14.5142V17.4854C32.1049 20.2506 31.4841 22.9974 30.1871 25.4425C29.0129 27.5267 27.2401 29.2104 25.0981 30.2757C22.4868 31.5183 19.6116 32.1047 16.7222 31.984H15.2776C12.3882 32.1045 9.51332 31.5181 6.90195 30.2757C4.75943 29.2112 2.98637 27.5273 1.81291 25.4425C0.515462 22.9976 -0.105401 20.2506 0.0146156 17.4854V14.5132C-0.104754 11.7477 0.516066 9.00013 1.81291 6.55464C2.98715 4.47016 4.75997 2.78622 6.90195 1.72048C9.51438 0.481494 12.3887 -0.103791 15.2776 0.0151126Z" fill="black"/>
<path d="M15.9951 8.00732C13.9157 8.00642 11.9179 8.81619 10.4256 10.2644C8.93338 11.7126 8.06427 13.6854 8.00293 15.7639V25.3264C8.00293 25.6763 8.07196 26.0231 8.20586 26.3464C8.33976 26.6696 8.53601 26.9634 8.78342 27.2108C9.03083 27.4582 9.32455 27.6544 9.64781 27.7883C9.97107 27.9222 10.3174 27.9908 10.6673 27.9908C11.0172 27.9908 11.3638 27.9222 11.6871 27.7883C12.0103 27.6544 12.3041 27.4582 12.5515 27.2108C12.7989 26.9634 12.9951 26.6696 13.129 26.3464C13.2629 26.0231 13.3317 25.6763 13.3317 25.3264V25.2215C11.7256 24.7582 10.2695 23.8812 9.10903 22.6781C8.96145 22.5259 8.88038 22.3213 8.88366 22.1093C8.88694 21.8973 8.97413 21.6954 9.12635 21.5478C9.27857 21.4003 9.48338 21.3192 9.69537 21.3225C9.90736 21.3258 10.1093 21.4132 10.2568 21.5654C10.2678 21.5774 10.2807 21.588 10.2917 21.601L10.3698 21.6791L10.3866 21.6961L10.4595 21.7659L10.5037 21.8078L10.5337 21.8361L10.6334 21.9249L10.6405 21.9317C11.4208 22.6395 12.3344 23.1846 13.3278 23.5352C14.6869 24.0147 16.1502 24.1183 17.5632 23.8347C18.9762 23.551 20.2862 22.8908 21.3549 21.9239C21.4701 21.82 21.5825 21.7119 21.6917 21.6C22.7951 20.4768 23.542 19.0526 23.8388 17.5064C24.1357 15.9601 23.9692 14.3608 23.3603 12.9088C22.7513 11.4568 21.7271 10.2169 20.4161 9.34489C19.1051 8.47291 17.5658 8.00757 15.9912 8.00732H15.9951Z" fill="white"/>
</svg>
