<svg width="44" height="42" viewBox="0 0 44 42" fill="none" xmlns="http://www.w3.org/2000/svg">
<path d="M44 20.98L39.12 15.4L39.8 8.02L32.58 6.38L28.8 0L22 2.92L15.2 0L11.42 6.38L4.2 8L4.88 15.4L0 20.98L4.88 26.56L4.2 33.96L11.42 35.6L15.2 42L22 39.06L28.8 41.98L32.58 35.6L39.8 33.96L39.12 26.58L44 20.98ZM36.1 23.94L34.98 25.24L35.14 26.94L35.5 30.84L31.7 31.7L30.02 32.08L29.14 33.56L27.16 36.92L23.6 35.38L22 34.7L20.42 35.38L16.86 36.92L14.88 33.58L14 32.1L12.32 31.72L8.52 30.86L8.88 26.94L9.04 25.24L7.92 23.94L5.34 21L7.92 18.04L9.04 16.74L8.86 15.02L8.5 11.14L12.3 10.28L13.98 9.9L14.86 8.42L16.84 5.06L20.4 6.6L22 7.28L23.58 6.6L27.14 5.06L29.12 8.42L30 9.9L31.68 10.28L35.48 11.14L35.12 15.04L34.96 16.74L36.08 18.04L38.66 20.98L36.1 23.94Z" fill="#7D4AEA"/>
<path d="M18.1801 24.5L13.5401 19.84L10.5801 22.82L18.1801 30.44L32.8601 15.72L29.9001 12.74L18.1801 24.5Z" fill="#7D4AEA"/>
</svg>
