<svg width="60" height="60" viewBox="0 0 60 60" fill="none" xmlns="http://www.w3.org/2000/svg">
<path d="M27.5 35.4254L22.075 30.0004L27.5 24.5754L23.975 21.0254L15 30.0004L23.975 38.9754L27.5 35.4254Z" fill="white"/>
<path d="M36.025 38.9754L45 30.0004L36.025 21.0254L32.5 24.5754L37.925 30.0004L32.5 35.4254L36.025 38.9754Z" fill="white"/>
<path d="M47.5 7.50002H37.05C36.5381 6.03861 35.5847 4.77241 34.3217 3.87656C33.0587 2.98072 31.5485 2.49951 30 2.49951C28.4515 2.49951 26.9413 2.98072 25.6783 3.87656C24.4153 4.77241 23.4619 6.03861 22.95 7.50002H12.5C12.1639 7.49487 11.8284 7.52842 11.5 7.60002C10.7048 7.76959 9.96232 8.12859 9.33557 8.64653C8.70883 9.16447 8.21636 9.82603 7.9 10.575C7.63571 11.1823 7.49954 11.8377 7.5 12.5V47.5C7.50471 48.1699 7.64061 48.8324 7.9 49.45C8.15749 50.0446 8.52185 50.5869 8.975 51.05C9.66458 51.7448 10.5423 52.2227 11.5 52.425C11.8309 52.4758 12.1652 52.5009 12.5 52.5H47.5C48.8249 52.4961 50.0943 51.968 51.0312 51.0312C51.968 50.0944 52.496 48.8249 52.5 47.5V12.5C52.496 11.1752 51.968 9.90568 51.0312 8.96886C50.0943 8.03203 48.8249 7.50397 47.5 7.50002V7.50002ZM30 6.87502C30.3708 6.87502 30.7334 6.98498 31.0417 7.19101C31.35 7.39704 31.5904 7.68987 31.7323 8.03249C31.8742 8.3751 31.9113 8.7521 31.839 9.11581C31.7666 9.47953 31.588 9.81362 31.3258 10.0758C31.0636 10.3381 30.7295 10.5166 30.3658 10.589C30.0021 10.6613 29.6251 10.6242 29.2825 10.4823C28.9399 10.3404 28.647 10.1001 28.441 9.79171C28.235 9.48337 28.125 9.12086 28.125 8.75002C28.1285 8.25382 28.3272 7.77893 28.678 7.42805C29.0289 7.07717 29.5038 6.87851 30 6.87502V6.87502ZM47.5 37.5V47.5H12.5V12.5H47.5V37.5Z" fill="white"/>
</svg>
