<svg width="60" height="60" viewBox="0 0 60 60" fill="none" xmlns="http://www.w3.org/2000/svg">
<path d="M53.75 52.5C55.8211 52.5 57.5 50.8211 57.5 48.75C57.5 46.6789 55.8211 45 53.75 45C51.6789 45 50 46.6789 50 48.75C50 50.8211 51.6789 52.5 53.75 52.5Z" fill="white"/>
<path d="M46.667 14.8L26.667 5V50H21.667V45.675C17.192 46.55 14.167 48.15 14.167 50C14.167 52.75 20.892 55 29.167 55C37.442 55 44.167 52.75 44.167 50C44.167 47.525 38.767 45.475 31.667 45.075V22.45L46.667 14.8Z" fill="white"/>
</svg>
